<svg xmlns:xlink="http://www.w3.org/1999/xlink" xmlns="http://www.w3.org/2000/svg" width="26" height="26" viewBox="0 0 26 26" fill="none"><path fill="#F7931A" d="M24.87 15.79c-1.684 6.75-8.52 10.857-15.27 9.174C2.853 23.281-1.255 16.445.428 9.696 2.11 2.946 8.946-1.162 15.694.521c6.75 1.682 10.857 8.52 9.175 15.27Z"></path><path fill="#FFFFFF" fill-rule="evenodd" d="M16.443 11.279c.17-1.138-.696-1.749-1.88-2.157l.384-1.54-.938-.234-.374 1.5c-.246-.062-.5-.12-.751-.177l.376-1.51-.937-.234-.384 1.54a31.33 31.33 0 0 1-.599-.14l.001-.005-1.293-.323-.25 1.002s.696.16.681.169c.38.095.45.346.437.545l-.437 1.755c.026.007.06.017.097.032l-.098-.025-.614 2.459c-.046.115-.164.288-.43.222.01.014-.681-.17-.681-.17l-.466 1.074 1.22.304.41.105.26.068-.389 1.558.937.234.384-1.542c.256.07.504.134.747.194l-.383 1.534.938.234.388-1.555c1.6.303 2.802.18 3.308-1.266.407-1.164-.02-1.836-.862-2.274.613-.142 1.074-.545 1.197-1.377ZM14.3 14.283c-.266 1.069-1.94.627-2.705.425l-.181-.048.514-2.064c.064.016.142.033.23.053.792.178 2.414.542 2.142 1.634Zm-1.982-2.592c.638.17 2.03.542 2.272-.43.248-.992-1.105-1.292-1.766-1.438a8.165 8.165 0 0 1-.193-.044l-.467 1.872c.044.01.096.025.154.04Z" clip-rule="evenodd"></path></svg>