<svg xmlns:xlink="http://www.w3.org/1999/xlink" xmlns="http://www.w3.org/2000/svg" width="27" height="26" viewBox="0 0 27 26" fill="none"><path fill="#32A4BE" d="M13.5 25.341c6.958 0 12.599-5.64 12.599-12.599C26.099 5.784 20.459.144 13.5.144 6.542.144.901 5.784.901 12.742c0 6.958 5.641 12.6 12.6 12.6Z"></path><path fill="#C2A633" d="M13.5 25.341c6.958 0 12.599-5.64 12.599-12.599C26.099 5.784 20.459.144 13.5.144 6.542.144.901 5.784.901 12.742c0 6.958 5.641 12.6 12.6 12.6Z"></path><mask id="a" width="27" height="26" x="0" y="0" maskUnits="userSpaceOnUse" style="mask-type:luminance" fill="none"><path fill="#FFFFFF" d="M13.5 25.341c6.958 0 12.599-5.64 12.599-12.599C26.099 5.784 20.459.144 13.5.144 6.542.144.901 5.784.901 12.742c0 6.958 5.641 12.6 12.6 12.6Z"></path></mask><g mask="url(#a)" fill="none"><path fill="#FFFFFF" fill-rule="evenodd" d="M13.709 7.689h-3.44v4.569h-2.1v1.523h2.1v4.568h3.44c1.815 0 2.207-.19 2.989-.57l.19-.092c.92-.442 1.636-1.064 2.146-1.866s.765-1.736.765-2.802-.255-2-.765-2.802-1.225-1.424-2.146-1.866c-.92-.441-1.98-.662-3.18-.662Zm-.884 6.092v2.543h.757c1.105 0 1.986-.297 2.643-.89.658-.595.987-1.4.987-2.415 0-1.015-.33-1.82-.987-2.414-.657-.594-1.538-.89-2.643-.89h-.757v2.543h2.446v1.523h-2.446Z" clip-rule="evenodd"></path></g></svg>