<svg xmlns:xlink="http://www.w3.org/1999/xlink" xmlns="http://www.w3.org/2000/svg" width="26" height="26" viewBox="0 0 26 26" fill="none"><path fill="#505050" d="M25.13 12.742c0 6.922-5.611 12.533-12.533 12.533-6.921 0-12.532-5.611-12.532-12.532C.065 5.82 5.675.21 12.597.21c6.921 0 12.532 5.611 12.532 12.532Z"></path><g fill="#FFFFFF" opacity="0.8"><path d="m12.557 6.927-.077.264v7.634l.077.078 3.544-2.095-3.544-5.88Z" fill="#FFFFFF"></path><path d="m12.557 6.927-3.544 5.88 3.544 2.096V6.927ZM12.557 16.055l-.044.054v2.72l.044.127 3.546-4.994-3.546 2.093Z" fill="#FFFFFF"></path><path d="M12.557 18.956v-2.9l-3.544-2.094 3.544 4.994ZM12.557 14.903l3.544-2.095-3.544-1.611v3.706Z" fill="#FFFFFF"></path><path d="m9.013 12.808 3.544 2.094v-3.705l-3.544 1.61Z" fill="#FFFFFF"></path></g></svg>