<svg width="165" height="80" viewBox="0 0 165 80" fill="none" xmlns="http://www.w3.org/2000/svg">
<path d="M50.6727 79.3827H16.4218C14.2538 79.3826 12.1082 78.9453 10.1132 78.0969C8.11816 77.2485 6.31472 76.0065 4.81073 74.4451C1.70921 71.2594 -0.0181631 66.9838 0.000144046 62.5377V57.3778C0.000144046 50.5033 4.21272 44.4834 11.2725 41.2631L14.0932 40.0777V57.1238C14.0813 57.2097 14.0751 57.2964 14.0747 57.3831V62.543C14.0747 63.4162 14.5086 63.9851 14.768 64.2497C14.9823 64.4731 15.2394 64.651 15.524 64.7729C15.8086 64.8947 16.1148 64.958 16.4244 64.9589H50.6807C51.5327 64.9589 52.0884 64.517 52.3451 64.2497C52.6017 63.9851 53.0304 63.4162 53.0304 62.5483V51.223H67.0996V62.5456C67.0996 67.044 65.3903 71.2777 62.2917 74.453C60.7855 76.0124 58.9807 77.2525 56.985 78.0995C54.9892 78.9464 52.8407 79.3828 50.6727 79.3827ZM55.7691 38.1487L53.0066 39.3103V22.1478C53.0167 22.1054 53.0211 22.0618 53.0198 22.0181V16.8583C53.0198 15.9851 52.5911 15.4109 52.3265 15.1463C52.1122 14.9229 51.8551 14.7449 51.5705 14.6231C51.2859 14.5013 50.9797 14.438 50.6701 14.4371H16.4191C15.7903 14.4469 15.1908 14.705 14.7516 15.1551C14.3124 15.6053 14.069 16.2109 14.0747 16.8398V28.165H0.000144046V16.8398C0.000144046 7.55199 7.36421 5.38826e-05 16.4191 5.38826e-05H50.6754C52.8431 0.00151757 54.9883 0.439459 56.9832 1.28776C58.978 2.13607 60.7816 3.37737 62.2864 4.93765C65.3874 8.12665 67.1137 12.4049 67.0944 16.853V22.0129C67.0944 28.9483 62.8633 34.984 55.7691 38.1434V38.1487Z" fill="#856FFC"/>
<path d="M27.4981 33.4863C32.4146 28.4455 33.5471 22.0605 33.5471 22.0605C33.5471 22.0605 34.2854 26.1698 37.114 30.3956C37.8126 31.4408 38.6302 32.4913 39.6013 33.4889C44.5178 38.5297 50.7414 39.6966 50.7414 39.6966C50.7414 39.6966 46.0446 40.5778 41.578 44.1182C40.8799 44.6707 40.2171 45.2664 39.5934 45.9017C34.6796 50.9425 33.5418 57.3354 33.5418 57.3354C33.5418 57.3354 32.8141 53.2261 29.9855 48.9844C29.2509 47.8809 28.4165 46.8473 27.4929 45.8964C22.5711 40.853 16.3449 39.6913 16.3449 39.6913C16.3449 39.6913 21.0496 38.8128 25.5136 35.2724C26.183 34.7299 26.8525 34.1451 27.4981 33.481V33.4863Z" fill="#856FFC"/>
<path d="M81.0996 32.6913L81.0996 46.6913" stroke="#856FFC" stroke-width="2"/>
<path d="M106.348 38.5117C107.997 39.2059 108.233 40.4554 108.233 42.3311V48.0243C108.233 50.6641 107.088 51.636 105.607 52.1913H97.7268C96.2447 51.636 95.0996 50.6631 95.0996 48.0253V43.0942H100.488V47.3301L100.825 47.6777H102.509L102.845 47.3301V43.5117L102.542 43.0253L96.9858 40.4554C95.336 39.6923 95.0996 38.5117 95.0996 36.6369V31.3593C95.0996 28.7204 96.2447 27.7486 97.7268 27.1923H105.607C107.088 27.7486 108.233 28.7204 108.233 31.3593V36.0107H102.845V32.0534L102.509 31.7059H100.825L100.488 32.0534V35.6991L100.926 36.2544L106.348 38.5117ZM122.198 32.401H118.325V52.1913H112.937V32.401H109.065V27.1913H122.198V32.401ZM136.354 31.3593V48.0253C136.354 50.6641 135.209 51.636 133.728 52.1913H125.848C124.366 51.636 123.221 50.6631 123.221 48.0253V31.3593C123.221 28.7204 124.366 27.7486 125.848 27.1923H133.728C135.209 27.7486 136.354 28.7204 136.354 31.3593ZM130.966 47.3301V32.0534L130.63 31.7059H128.946L128.609 32.0534V47.3301L128.946 47.6777H130.63L130.966 47.3301ZM145.461 31.7059H143.44V37.9564H145.461L145.798 37.6088V32.0534L145.461 31.7059ZM143.44 52.1913H138.052V27.1923H148.559C150.041 27.7486 151.185 28.7204 151.185 31.3593V36.6709C151.185 39.067 150.243 40.1088 148.929 40.6991L151.826 48.6845V52.1913H147.111L144.013 42.4699H143.44V52.1913ZM152.819 52.1913V27.1923H163.931V32.401H158.207V36.9146H163.594V42.1224H158.207V46.9835H164.1V52.1913H152.819Z" fill="white"/>
</svg>
