<svg width="84" height="30" viewBox="0 0 84 30" fill="none" xmlns="http://www.w3.org/2000/svg">
<path d="M19.1501 1.01552e-08H6.20605C5.38676 3.94789e-05 4.57589 0.165311 3.82194 0.48593C3.06798 0.806549 2.38644 1.27593 1.81805 1.866C0.645937 3.06991 -0.00686414 4.68576 5.44374e-05 6.366V8.316C5.44374e-05 10.914 1.59205 13.189 4.26005 14.406L5.32605 14.854V8.412C5.32155 8.37952 5.31921 8.34679 5.31905 8.314V6.364C5.31905 6.034 5.48305 5.819 5.58105 5.719C5.66205 5.63458 5.75923 5.56733 5.86678 5.52129C5.97433 5.47524 6.09006 5.45134 6.20705 5.451H19.1531C19.4751 5.451 19.6851 5.618 19.7821 5.719C19.8791 5.819 20.0411 6.034 20.0411 6.362V10.642H25.3581V6.363C25.3581 4.663 24.7121 3.063 23.5411 1.863C22.9718 1.27369 22.2898 0.805027 21.5356 0.484954C20.7813 0.164882 19.9694 -4.72532e-05 19.1501 1.01552e-08ZM21.0761 15.583L20.0321 15.144V21.63C20.0359 21.646 20.0376 21.6625 20.0371 21.679V23.629C20.0371 23.959 19.8751 24.176 19.7751 24.276C19.6941 24.3604 19.5969 24.4277 19.4893 24.4737C19.3818 24.5198 19.2661 24.5437 19.1491 24.544H6.20505C5.9674 24.5403 5.74086 24.4428 5.57487 24.2727C5.40887 24.1025 5.31691 23.8737 5.31905 23.636V19.356H5.44374e-05V23.636C5.44374e-05 27.146 2.78305 30 6.20505 30H19.1511C19.9703 29.9994 20.781 29.8339 21.5349 29.5134C22.2887 29.1928 22.9704 28.7237 23.5391 28.134C24.711 26.9288 25.3634 25.312 25.3561 23.631V21.681C25.3561 19.06 23.7571 16.779 21.0761 15.585V15.583Z" fill="#856FFC"/>
<path d="M10.392 17.345C12.25 19.25 12.678 21.663 12.678 21.663C12.678 21.663 12.957 20.11 14.026 18.513C14.29 18.118 14.599 17.721 14.966 17.344C16.824 15.439 19.176 14.998 19.176 14.998C19.176 14.998 17.401 14.665 15.713 13.327C15.4492 13.1182 15.1987 12.8931 14.963 12.653C13.106 10.748 12.676 8.33197 12.676 8.33197C12.676 8.33197 12.401 9.88497 11.332 11.488C11.0544 11.905 10.7391 12.2956 10.39 12.655C8.53 14.561 6.177 15 6.177 15C6.177 15 7.955 15.332 9.642 16.67C9.895 16.875 10.148 17.096 10.392 17.347V17.345Z" fill="#856FFC"/>
<path d="M31.3581 8L31.3581 22" stroke="#856FFC" stroke-width="2"/>
<path d="M44.8567 14.2451C45.9565 14.6893 46.1135 15.489 46.1135 16.6895V20.3331C46.1135 22.0226 45.3501 22.6446 44.3627 23H39.1095C38.1214 22.6446 37.3581 22.022 37.3581 20.3338V17.1779H40.9501V19.8889L41.1749 20.1113H42.2973L42.5214 19.8889V17.4451L42.3199 17.1338L38.6155 15.489C37.5156 15.0006 37.3581 14.2451 37.3581 13.0452V9.66752C37.3581 7.97867 38.1214 7.35669 39.1095 7.00064H44.3627C45.3501 7.35669 46.1135 7.97867 46.1135 9.66752V12.6444H42.5214V10.1118L42.2973 9.88933H41.1749L40.9501 10.1118V12.445L41.242 12.8004L44.8567 14.2451ZM55.4237 10.3342H52.8417V23H49.2496V10.3342H46.6682V7H55.4237V10.3342ZM64.8611 9.66752V20.3338C64.8611 22.0226 64.0977 22.6446 63.1102 23H57.8571C56.869 22.6446 56.1056 22.022 56.1056 20.3338V9.66752C56.1056 7.97867 56.869 7.35669 57.8571 7.00064H63.1102C64.0977 7.35669 64.8611 7.97867 64.8611 9.66752ZM61.269 19.8889V10.1118L61.0449 9.88933H59.9225L59.6977 10.1118V19.8889L59.9225 20.1113H61.0449L61.269 19.8889ZM70.9324 9.88933H69.5853V13.8897H70.9324L71.1572 13.6672V10.1118L70.9324 9.88933ZM69.5853 23H65.9932V7.00064H72.9978C73.9859 7.35669 74.7486 7.97867 74.7486 9.66752V13.067C74.7486 14.6005 74.1202 15.2672 73.2445 15.645L75.1755 20.7557V23H72.0323L69.9669 16.7783H69.5853V23ZM75.8375 23V7.00064H83.2457V10.3342H79.4295V13.2229H83.0209V16.5559H79.4295V19.667H83.3581V23H75.8375Z" fill="white"/>
</svg>
