<svg xmlns:xlink="http://www.w3.org/1999/xlink" xmlns="http://www.w3.org/2000/svg" width="26" height="26" viewBox="0 0 26 26" fill="none"><g clip-path="url(#a)" fill="none"><mask id="b" width="26" height="26" x="0" y="0" maskUnits="userSpaceOnUse" style="mask-type:alpha" fill="none"><path fill="#FFFFFF" d="M.852 0h25.099v25.485H.852V0Z"></path></mask><g mask="url(#b)" fill="none"><path fill="#2775CA" fill-rule="evenodd" d="M13.401 0c6.931 0 12.55 5.705 12.55 12.742 0 7.037-5.619 12.743-12.55 12.743-6.93 0-12.549-5.706-12.549-12.743S6.47 0 13.402 0Z" clip-rule="evenodd"></path></g><path fill="#FFFFFF" fill-rule="evenodd" d="M11.552 19.736c0 .236-.182.37-.406.299C8.163 19.069 6 16.228 6 12.877c0-3.35 2.163-6.191 5.146-7.157.224-.071.406.062.406.298V6.6c0 .157-.12.341-.267.392a6.27 6.27 0 0 0-4.05 5.881 6.269 6.269 0 0 0 4.05 5.881.453.453 0 0 1 .267.393v.59Z" clip-rule="evenodd"></path><path fill="#FFFFFF" fill-rule="evenodd" d="M14.017 17.572c0 .172-.14.314-.31.314h-.615a.313.313 0 0 1-.31-.314v-.99c-1.346-.185-2.004-.951-2.182-1.992a.29.29 0 0 1 .287-.338h.704c.147 0 .27.106.302.255.131.621.483 1.096 1.563 1.096.797 0 1.362-.451 1.362-1.127 0-.676-.333-.931-1.502-1.128-1.725-.235-2.542-.766-2.542-2.14 0-1.061.79-1.886 2.012-2.063v-.97c0-.173.14-.315.31-.315h.615c.17 0 .31.142.31.315v.997c.994.181 1.624.755 1.83 1.705a.29.29 0 0 1-.283.35h-.65a.314.314 0 0 1-.298-.232c-.174-.605-.6-.864-1.338-.864-.817 0-1.239.4-1.239.962 0 .594.24.892 1.494 1.077 1.694.236 2.57.727 2.57 2.192 0 1.112-.813 2.012-2.086 2.22v.99h-.004Z" clip-rule="evenodd"></path><path fill="#FFFFFF" fill-rule="evenodd" d="M15.657 20.035c-.224.071-.406-.063-.406-.299v-.58c0-.174.104-.335.267-.394a6.27 6.27 0 0 0 4.05-5.88c0-2.7-1.69-5.002-4.05-5.882a.454.454 0 0 1-.267-.393v-.581c0-.236.182-.373.406-.299 2.983.967 5.146 3.807 5.146 7.158-.004 3.343-2.163 6.18-5.146 7.15Z" clip-rule="evenodd"></path></g><defs><clipPath id="a"><path fill="#fff" d="M.852 0h25.1v25.485H.851z"></path></clipPath></defs></svg>